<svg width="24" height="24" viewBox="0 0 24 24" fill="none" xmlns="http://www.w3.org/2000/svg">
<path d="M12.0119 -3.05176e-05C14.3861 0.00232661 16.706 0.708949 18.6787 2.03031C20.6511 3.35167 22.1873 5.2285 23.093 7.42341C23.9985 9.61815 24.2326 12.0322 23.7656 14.3602C23.2987 16.6882 22.1518 18.825 20.47 20.5007C18.7882 22.1765 16.6471 23.3157 14.3175 23.7741C11.988 24.2326 9.57498 23.9899 7.38328 23.0765C5.19188 22.1631 3.32058 20.6203 2.00647 18.643C0.692135 16.6657 -0.00613082 14.3432 4.05567e-05 11.9689C0.00826906 8.7896 1.2779 5.74351 3.53007 3.49953C5.78206 1.25559 8.83274 -0.00303049 12.0119 0.000183766L12.0119 -3.05176e-05ZM11.095 9.11989H8.95437C8.7985 9.12122 8.64365 9.14299 8.49348 9.18469C8.31036 9.22288 8.17039 9.37151 8.14309 9.55669C8.09234 9.7579 8.19366 9.96649 8.38317 10.051C8.6137 10.1589 8.86145 10.2255 9.11508 10.2479C9.78219 10.2791 10.0511 10.5719 9.95027 11.2582C9.76312 12.5423 9.51116 13.8166 9.29503 15.0983C9.14872 15.9623 9.02619 16.8286 8.88472 17.6926C8.69504 18.8566 9.77987 19.9486 10.6415 20.0926C11.1519 20.1641 11.6669 20.1971 12.1823 20.191C13.2866 20.1897 14.3416 19.733 15.0983 18.9286C15.2357 18.8021 15.3388 18.6427 15.3983 18.4654C15.4272 18.3105 15.3907 18.1506 15.2975 18.0237C15.1846 17.9532 15.0459 17.9382 14.9206 17.9831C14.7237 18.0479 14.5486 18.1823 14.3566 18.2663V18.2661C14.1323 18.3709 13.8973 18.4513 13.6558 18.5062C13.4611 18.5539 13.2552 18.5139 13.0925 18.3965C12.9299 18.2792 12.827 18.0964 12.8111 17.8967C12.7706 17.6733 12.7634 17.4452 12.7895 17.2198C12.871 16.663 12.9864 16.1111 13.0871 15.559C13.3607 14.0534 13.6382 12.5471 13.9198 11.0397C13.9967 10.6269 14.1262 10.2212 14.0399 9.787V9.78683C14.0263 9.59398 13.9359 9.41449 13.7888 9.28896C13.6416 9.16339 13.4501 9.10245 13.2574 9.11972H11.095V9.11994V9.11989ZM12.4007 3.78251C11.8206 3.75705 11.2543 3.96414 10.8274 4.3579C10.4007 4.7518 10.1487 5.2996 10.1274 5.88001C10.1064 6.46024 10.3176 7.0251 10.7145 7.44895C11.1115 7.87285 11.6611 8.12077 12.2417 8.13783C12.8221 8.15476 13.3852 7.93928 13.8063 7.53934C14.2273 7.13923 14.4712 6.58779 14.4839 6.00721C14.5 5.43717 14.2901 4.88372 13.8998 4.46788C13.5096 4.05186 12.9707 3.80728 12.4007 3.78718V3.78251Z" fill="white"/>
</svg>
