<svg width="21" height="20" viewBox="0 0 21 20" fill="none" xmlns="http://www.w3.org/2000/svg">
<path fill-rule="evenodd" clip-rule="evenodd" d="M14.573 0H6.48919C3.20388 0 0.531082 2.67279 0.531082 5.95811V14.0419C0.531082 17.3272 3.20388 20 6.48919 20H14.573C17.8583 20 20.5311 17.3272 20.5311 14.0419V5.95811C20.5311 2.67279 17.8583 0 14.573 0ZM18.5191 14.0419C18.5191 16.2213 16.7523 17.988 14.573 17.988H6.48919C4.30983 17.988 2.54308 16.2213 2.54308 14.0419V5.95811C2.54308 3.77871 4.30983 2.012 6.48919 2.012H14.573C16.7523 2.012 18.5191 3.77871 18.5191 5.95811V14.0419ZM10.5311 4.82729C7.67884 4.82729 5.35837 7.14776 5.35837 9.99996C5.35837 12.8522 7.67884 15.1727 10.5311 15.1727C13.3833 15.1727 15.7038 12.8522 15.7038 9.99996C15.7038 7.14773 13.3833 4.82729 10.5311 4.82729ZM10.5311 13.1607C8.78545 13.1607 7.37037 11.7456 7.37037 10C7.37037 8.25437 8.78549 6.83929 10.5311 6.83929C12.2767 6.83929 13.6918 8.25437 13.6918 10C13.6918 11.7456 12.2767 13.1607 10.5311 13.1607ZM16.9531 4.8662C16.9531 5.55073 16.3982 6.10565 15.7137 6.10565C15.0291 6.10565 14.4742 5.55073 14.4742 4.8662C14.4742 4.18167 15.0291 3.62674 15.7137 3.62674C16.3982 3.62674 16.9531 4.18167 16.9531 4.8662Z" fill="white"/>
</svg>
