<svg width="64" height="64" viewBox="0 0 64 64" fill="none" xmlns="http://www.w3.org/2000/svg">
<path d="M43.3818 54.4479C44.0216 54.4479 44.5247 54.9714 44.5017 55.6138C44.4563 57.4418 43.9532 59.2249 43.039 60.8249C41.7364 61.3275 40.3879 61.7367 39.0165 62.0591C40.9824 60.4591 42.1705 58.0821 42.2165 55.5427C42.2395 54.9279 42.765 54.4249 43.3823 54.4478L43.3818 54.4479ZM51.1992 50.5847C51.7023 52.3469 51.7936 54.1964 51.4048 56.0021C50.3079 56.8705 49.1651 57.6934 47.9533 58.4021C49.3477 56.2766 49.7135 53.673 49.0048 51.2481C48.8221 50.6307 49.165 50.0139 49.7589 49.8307C50.3762 49.648 51.016 49.9909 51.1986 50.5847L51.1992 50.5847ZM48.8222 6.12689C50.011 6.90393 51.1309 7.74988 52.1825 8.66417C49.7365 8.00141 47.1309 8.45856 45.0508 9.89835C44.5253 10.2412 43.8166 10.104 43.4508 9.60141C43.1079 9.07591 43.2222 8.36723 43.7477 8.00142C45.2564 6.97284 46.9937 6.3331 48.8223 6.12687L48.8222 6.12689ZM57.8738 48.824C57.0962 50.0123 56.2508 51.1327 55.3365 52.1838C55.9992 49.7378 55.5421 47.1322 54.1023 45.0521C53.7595 44.5286 53.8967 43.8179 54.3992 43.4521C54.9247 43.1113 55.6334 43.2235 55.9992 43.749C57.0278 45.2577 57.6675 46.995 57.8738 48.8236L57.8738 48.824ZM58.3993 16.0469C56.2738 14.6551 53.6676 14.2866 51.2452 14.9954C50.6279 15.178 50.0111 14.8377 49.8278 14.2433C49.6452 13.6239 49.988 12.9841 50.5819 12.801C52.3422 12.2979 54.1931 12.2066 55.9993 12.5954C56.8677 13.6923 57.6906 14.8351 58.3993 16.0469L58.3993 16.0469ZM60.8223 20.9612C61.3253 22.2642 61.7365 23.6127 62.0564 24.9842C60.4564 23.0209 58.0794 21.8301 55.5422 21.7863C54.9248 21.7613 54.4223 21.2378 54.4452 20.5954C54.4452 19.9781 54.9707 19.4755 55.611 19.5005C57.4396 19.5439 59.2222 20.047 60.8222 20.9613L60.8223 20.9612ZM61.8049 40.0005C61.4391 41.372 60.9819 42.6974 60.4335 43.9775C60.2962 41.4612 59.062 39.1092 57.0509 37.5775C56.5708 37.1867 56.4565 36.4806 56.8453 35.9775C57.2341 35.4724 57.9422 35.3831 58.4453 35.7469C59.908 36.8694 61.0509 38.3321 61.8055 40.0004L61.8049 40.0005ZM62.8105 30.4005C62.8789 31.8179 62.8564 33.2117 62.7421 34.6061C61.8508 32.254 59.9533 30.4005 57.5533 29.5546C56.9589 29.3489 56.662 28.6862 56.8676 28.0918C57.0732 27.4974 57.7135 27.2005 58.3073 27.4061C60.0446 28.0005 61.5986 29.0521 62.8105 30.4005H62.8105ZM9.89688 18.949C10.2397 19.4724 10.103 20.1831 9.59995 20.549C9.07444 20.8898 8.36577 20.7775 7.99995 20.252C6.97138 18.7433 6.33164 17.0061 6.1254 15.1755C6.90244 13.9867 7.74839 12.8668 8.66267 11.8153C7.99992 14.2632 8.45706 16.8688 9.89686 18.9489L9.89688 18.949ZM14.1714 49.7604C14.3541 50.3772 14.0112 51.0175 13.4174 51.2001C11.6571 51.7032 9.80566 51.7945 7.99995 51.4057C7.13158 50.3088 6.30865 49.166 5.59995 47.9542C7.7254 49.3486 10.3316 49.7144 12.754 49.0057C13.3713 48.8231 13.9887 49.1659 14.1714 49.7603L14.1714 49.7604ZM8.38883 44.5033C6.56026 44.4573 4.77767 43.9568 3.17767 43.0405C2.6746 41.7375 2.26338 40.389 1.94348 39.0175C3.54348 40.9808 5.9205 42.1716 8.45777 42.2154C9.07512 42.2404 9.57766 42.7639 9.5547 43.3833C9.5547 44.0231 9.0292 44.5262 8.38888 44.5032L8.38883 44.5033ZM5.69143 36.5945C3.95415 36.0002 2.40013 34.9486 1.18883 33.6001C1.11996 32.1827 1.14291 30.789 1.2572 29.3946C2.14852 31.7466 4.04603 33.6001 6.44603 34.4461C7.03991 34.6517 7.33736 35.3145 7.13175 35.9088C6.92563 36.5032 6.28582 36.8002 5.69148 36.5945H5.69143ZM7.15415 28.0231C6.76537 28.5282 6.05722 28.6175 5.55415 28.2537C4.09143 27.1338 2.94857 25.6711 2.19389 24.0022C2.55971 22.6307 3.01685 21.3053 3.56532 20.0252C3.70257 22.5415 4.93675 24.8935 6.94792 26.4252C7.42853 26.8114 7.54282 27.5201 7.15404 28.0231L7.15415 28.0231ZM16.0455 5.59961C14.6516 7.72506 14.2857 10.3287 14.9944 12.7536C15.1771 13.371 14.8342 14.0108 14.2398 14.171C13.623 14.3537 12.9827 14.0108 12.8001 13.417C12.297 11.6567 12.2057 9.80527 12.5945 7.99956C13.6914 7.1312 14.8342 6.30826 16.0461 5.59956L16.0455 5.59961ZM18.9486 54.1025C19.4746 53.7596 20.1828 53.8963 20.5486 54.3994C20.8914 54.9249 20.7771 55.6336 20.2516 55.9994C18.7429 57.028 17.0057 57.6677 15.1771 57.8739C13.9888 57.0964 12.8684 56.251 11.8174 55.3367C14.2628 55.9994 16.8684 55.5423 18.9485 54.1025L18.9486 54.1025ZM24.9827 1.94247C23.0169 3.54247 21.8287 5.91948 21.7827 8.45884C21.7598 9.07619 21.2343 9.57874 20.6169 9.55374C19.9771 9.55374 19.474 9.03027 19.497 8.38792C19.5429 6.55935 20.0455 4.77675 20.9597 3.17675C22.2628 2.67369 23.6113 2.26247 24.9827 1.94257V1.94247ZM28.023 56.8453C28.5261 57.2341 28.6174 57.9402 28.2516 58.4453C27.1317 59.908 25.669 61.0509 24 61.8056C22.6286 61.4398 21.3031 60.9826 20.023 60.4342C22.5373 60.2949 24.8913 59.0606 26.423 57.0516C26.8118 56.5715 27.5199 56.4572 28.023 56.8459V56.8453ZM30.4 1.18884C31.8174 1.12251 33.2112 1.14292 34.6056 1.25721C32.2516 2.15109 30.4 4.04604 29.554 6.44799C29.3484 7.04239 28.6857 7.33932 28.0913 7.13371C27.4969 6.9281 27.2 6.28779 27.4056 5.69397C28 3.95474 29.0516 2.40006 30.4 1.18889V1.18884ZM32 11.4286C43.3603 11.4286 52.5714 20.6397 52.5714 32C52.5714 43.3603 43.3603 52.5714 32 52.5714C20.6397 52.5714 11.4286 43.3603 11.4286 32C11.4286 20.6397 20.6397 11.4286 32 11.4286ZM64 32C64 14.3321 49.6679 0 32 0C14.3321 0 0 14.3321 0 32C0 49.6679 14.3321 64 32 64C49.6679 64 64 49.6679 64 32ZM35.9092 56.8686C36.5036 57.0747 36.8005 57.7145 36.5949 58.3088C36.0005 60.0461 34.949 61.6001 33.6005 62.8139C32.1831 62.8802 30.7894 62.8593 29.3949 62.745C31.749 61.8511 33.6005 59.9562 34.4465 57.5542C34.6521 56.9599 35.3149 56.6629 35.9092 56.8685V56.8686ZM35.749 5.55363C36.8689 4.09091 38.3316 2.94805 40.0006 2.19337C41.372 2.55919 42.6975 3.01633 43.9776 3.5648C41.4633 3.70409 39.1093 4.93832 37.5776 6.9474C37.1888 7.42751 36.4807 7.54179 35.9776 7.15301C35.4745 6.76423 35.3832 6.05607 35.749 5.55301V5.55363Z" fill="#FF690F"/>
</svg>
