<svg width="16" height="24" viewBox="0 0 16 24" fill="none" xmlns="http://www.w3.org/2000/svg">
<path d="M8.00011 0.799896C5.88715 0.827856 3.86851 1.67974 2.37411 3.17398C0.879911 4.66818 0.0280305 6.68694 3.05176e-05 8.79998C3.05176e-05 15.068 7.12003 22.632 7.42003 22.9512C7.57111 23.1101 7.78083 23.2001 8.00003 23.2001C8.21923 23.2001 8.42895 23.1101 8.58003 22.9512C8.88003 22.6319 16 15.068 16 8.79998C15.9721 6.68702 15.1202 4.66838 13.626 3.17398C12.1318 1.67978 10.113 0.827896 7.99995 0.799896H8.00011ZM8.00011 11.9999C7.15135 11.9999 6.33747 11.6627 5.73731 11.0627C5.13731 10.4625 4.80011 9.64862 4.80011 8.7999C4.80011 7.95118 5.13731 7.13726 5.73731 6.5371C6.33747 5.9371 7.15139 5.5999 8.00011 5.5999C8.84883 5.5999 9.66275 5.9371 10.2629 6.5371C10.8629 7.13726 11.2001 7.95118 11.2001 8.7999C11.2001 9.64862 10.8629 10.4625 10.2629 11.0627C9.66275 11.6627 8.84883 11.9999 8.00011 11.9999Z" fill="#FF690F"/>
</svg>
