<svg width="12" height="18" viewBox="0 0 12 18" fill="none" xmlns="http://www.w3.org/2000/svg">
<path d="M6.00006 0.599915C4.41534 0.620885 2.90136 1.25979 1.78056 2.38047C0.65991 3.50112 0.021 5.01519 0 6.59997C0 11.301 5.34 16.974 5.565 17.2134C5.67831 17.3326 5.8356 17.4001 6 17.4001C6.1644 17.4001 6.32169 17.3326 6.435 17.2134C6.66 16.9739 12 11.301 12 6.59997C11.979 5.01525 11.3401 3.50127 10.2194 2.38047C9.09879 1.25982 7.58472 0.620915 5.99994 0.599915H6.00006ZM6.00006 8.99991C5.36349 8.99991 4.75308 8.74701 4.30296 8.29701C3.85296 7.84689 3.60006 7.23645 3.60006 6.59991C3.60006 5.96337 3.85296 5.35293 4.30296 4.90281C4.75308 4.45281 5.36352 4.19991 6.00006 4.19991C6.6366 4.19991 7.24704 4.45281 7.69716 4.90281C8.14716 5.35293 8.40006 5.96337 8.40006 6.59991C8.40006 7.23645 8.14716 7.84689 7.69716 8.29701C7.24704 8.74701 6.6366 8.99991 6.00006 8.99991Z" fill="white"/>
</svg>
