<svg width="29" height="28" viewBox="0 0 29 28" fill="none" xmlns="http://www.w3.org/2000/svg">
<path d="M15.0498 16.5889H12.8086C12.8145 16.0615 12.8555 15.6074 12.9316 15.2266C13.0137 14.8398 13.1514 14.4912 13.3447 14.1807C13.5439 13.8701 13.8076 13.5625 14.1357 13.2578C14.4111 13.0117 14.6514 12.7773 14.8564 12.5547C15.0615 12.332 15.2227 12.1035 15.3398 11.8691C15.457 11.6289 15.5156 11.3623 15.5156 11.0693C15.5156 10.7295 15.4629 10.4482 15.3574 10.2256C15.2578 9.99707 15.1055 9.82422 14.9004 9.70703C14.7012 9.58984 14.4492 9.53125 14.1445 9.53125C13.8926 9.53125 13.6582 9.58691 13.4414 9.69824C13.2246 9.80371 13.0459 9.96777 12.9053 10.1904C12.7705 10.4131 12.7002 10.7061 12.6943 11.0693H10.1455C10.1631 10.2666 10.3477 9.60449 10.6992 9.08301C11.0566 8.55566 11.5342 8.16602 12.1318 7.91406C12.7295 7.65625 13.4004 7.52734 14.1445 7.52734C14.9648 7.52734 15.668 7.66211 16.2539 7.93164C16.8398 8.19531 17.2881 8.58496 17.5986 9.10059C17.9092 9.61035 18.0645 10.2314 18.0645 10.9639C18.0645 11.4736 17.9648 11.9277 17.7656 12.3262C17.5664 12.7188 17.3057 13.085 16.9834 13.4248C16.6611 13.7646 16.3066 14.1162 15.9199 14.4795C15.5859 14.7783 15.3574 15.0918 15.2344 15.4199C15.1172 15.748 15.0557 16.1377 15.0498 16.5889ZM12.5449 19.3047C12.5449 18.9297 12.6738 18.6191 12.9316 18.373C13.1895 18.1211 13.5352 17.9951 13.9688 17.9951C14.3965 17.9951 14.7393 18.1211 14.9971 18.373C15.2607 18.6191 15.3926 18.9297 15.3926 19.3047C15.3926 19.668 15.2607 19.9756 14.9971 20.2275C14.7393 20.4795 14.3965 20.6055 13.9688 20.6055C13.5352 20.6055 13.1895 20.4795 12.9316 20.2275C12.6738 19.9756 12.5449 19.668 12.5449 19.3047Z" fill="#FF690F"/>
<rect x="1.25" y="1" width="26" height="26" rx="13" stroke="#FF690F" stroke-width="2"/>
</svg>
