<svg width="25" height="20" viewBox="0 0 25 20" fill="none" xmlns="http://www.w3.org/2000/svg">
<path d="M23.9775 2.30814C23.5937 2.47835 23.1991 2.622 22.796 2.73863C23.2733 2.19884 23.6372 1.56371 23.8593 0.868695C23.9091 0.712907 23.8575 0.542383 23.7295 0.440494C23.6016 0.338526 23.4239 0.326312 23.2831 0.409762C22.4269 0.917551 21.5032 1.28248 20.5347 1.49587C19.559 0.54254 18.2339 0 16.8641 0C13.9725 0 11.62 2.35243 11.62 5.24393C11.62 5.47166 11.6344 5.69813 11.6629 5.92145C8.07476 5.60641 4.7389 3.84278 2.44818 1.03284C2.36654 0.932681 2.24078 0.878703 2.11202 0.889025C1.98318 0.899112 1.86742 0.971766 1.80233 1.08343C1.33772 1.88065 1.0921 2.79245 1.0921 3.72016C1.0921 4.98373 1.54323 6.1826 2.34014 7.11937C2.09783 7.03545 1.86269 6.93057 1.63827 6.80599C1.51778 6.73893 1.37074 6.73995 1.25104 6.80859C1.13127 6.87722 1.05617 7.00346 1.05302 7.14144C1.05247 7.16468 1.05247 7.18793 1.05247 7.21149C1.05247 9.09758 2.06757 10.7956 3.61954 11.7212C3.48621 11.7078 3.35296 11.6885 3.22058 11.6632C3.0841 11.6372 2.94375 11.685 2.85171 11.7891C2.75952 11.8931 2.72902 12.0381 2.7715 12.1705C3.34595 13.964 4.82495 15.2832 6.61293 15.6854C5.12999 16.6142 3.43413 17.1007 1.65387 17.1007C1.28241 17.1007 0.908813 17.0789 0.543179 17.0356C0.361545 17.014 0.187869 17.1213 0.12601 17.294C0.0641522 17.4668 0.129714 17.6595 0.284242 17.7585C2.57126 19.2249 5.21572 20 7.93158 20C13.2706 20 16.6106 17.4823 18.4722 15.3702C20.7937 12.7367 22.1251 9.25077 22.1251 5.80648C22.1251 5.66259 22.1229 5.51728 22.1185 5.37245C23.0344 4.6824 23.8229 3.84727 24.4646 2.8874C24.5621 2.74162 24.5515 2.54895 24.4386 2.41476C24.3258 2.28048 24.1379 2.23706 23.9775 2.30814Z" fill="white"/>
</svg>
